<?xml version="1.0" encoding="UTF-8" standalone="no"?><!DOCTYPE svg PUBLIC "-//W3C//DTD SVG 1.1//EN" "http://www.w3.org/Graphics/SVG/1.1/DTD/svg11.dtd"><svg width="100%" height="100%" viewBox="0 0 315 315" version="1.1" xmlns="http://www.w3.org/2000/svg" xmlns:xlink="http://www.w3.org/1999/xlink" xml:space="preserve" xmlns:serif="http://www.serif.com/" style="fill-rule:evenodd;clip-rule:evenodd;stroke-linejoin:round;stroke-miterlimit:2;"><g><path d="M60.405,316.664l0,0.004l-60.405,0l-0,-318.336l60.405,0l0,0.004l136.507,0c2.193,0 4.251,0.583 6.025,1.601c-0.935,0.062 -1.988,0.097 -3.184,0.097c-10.016,-0 -12.878,1.439 -14.719,2.657c-1.838,1.226 -2.046,1.842 -2.046,1.842c-0,-0 -3.47,0.612 -4.704,2.247c-1.226,1.638 -0.195,1.843 -0.195,1.843c-0,0 -2.463,0.411 -2.463,2.25c-0,1.606 1.727,2.279 2.162,2.423c-0.59,-0.176 -3.664,-0.981 -4.405,1.05c-0.82,2.25 1.23,3.478 3.064,3.272l1.837,-0.205c-0,0 -3.068,1.43 -4.08,0.815c-1.031,-0.61 -2.662,1.028 -2.662,2.251c0,1.23 1.021,3.476 3.071,3.063c2.044,-0.407 1.427,-1.018 2.658,-1.018c1.227,-0 2.649,-0.815 2.649,-0.815c-0,0 -1.018,2.654 -3.063,2.654c-2.044,-0 -5.721,2.044 -6.127,3.266c-0.415,1.235 0.406,4.907 1.632,5.316c1.231,0.412 5.113,0.412 7.362,-1.223c2.239,-1.634 3.068,-2.657 4.498,-2.657c1.423,0 3.676,-0.41 3.676,-0.41c0,-0 -3.073,6.746 -4.086,7.769c-1.02,1.024 -4.088,5.316 -4.91,7.567c-0.813,2.243 -4.498,11.443 -5.925,12.468c-1.435,1.02 -2.662,3.471 -2.662,3.471c0,-0 -0.205,-4.698 -1.226,-5.516c-1.021,-0.817 -2.25,-0.609 -2.861,-1.225c-0.613,-0.613 -1.226,-1.435 -1.842,-1.435c-0.615,0 -1.633,-1.427 -3.469,-1.632c-1.846,-0.206 -1.435,1.429 -2.458,0.614c-1.02,-0.82 -2.041,-1.841 -4.083,0.815c-2.051,2.659 -2.257,3.27 -2.257,4.294c0,1.021 0.825,2.657 -0.606,2.657c-1.431,-0 -3.684,1.022 -3.684,2.867c0,1.837 2.662,2.447 4.086,3.472c1.43,1.025 3.682,2.454 4.292,2.454c0.621,-0 2.048,0.2 2.048,0.2c0,-0 0.616,2.86 -0.205,3.677c-0.812,0.819 -5.513,4.298 -6.537,6.343c-1.022,2.048 -0.411,3.067 -1.431,3.067c-1.031,-0 -4.911,-0 -7.162,0.814c-2.247,0.82 -10.014,1.433 -13.288,2.656c-3.268,1.23 -12.665,3.274 -16.146,5.111c-3.474,1.842 -7.357,4.704 -8.173,5.928c-0.826,1.226 -2.048,3.886 -2.456,4.91c-0.408,1.023 -1.636,2.044 -1.636,3.065l0,1.841c0,-0 -1.636,-0.207 -2.657,-0.207c-1.021,-0 -1.636,0.207 -1.636,0.207c0,-0 0,-1.023 -0.613,-2.455c-0.61,-1.428 -1.019,-2.251 -1.019,-2.251c0,-0 1.83,-0.2 1.632,-2.856c-0.204,-2.66 -1.432,-2.66 -2.247,-5.116c-0.817,-2.45 -1.841,-2.655 -2.66,-2.044l-0.817,0.616c0,0 -4.088,-6.952 -8.789,-8.384c-4.704,-1.433 -14.719,-2.854 -17.787,6.543c-3.067,9.406 3.883,16.969 3.883,16.969c0,-0 -1.834,0.815 -1.224,2.449c0.615,1.641 3.268,2.865 3.882,4.503c0.615,1.632 1.432,1.632 2.665,1.632l1.222,0c-0,0 3.677,0.613 5.103,2.659c1.44,2.045 4.504,5.52 5.323,6.744c0.815,1.23 3.878,2.251 3.878,2.251c0,0 -7.155,7.362 -7.155,9.603c0,2.253 3.89,6.956 3.89,6.956c-0,0 -0.613,2.042 -0.201,2.656c0.403,0.617 0.812,2.453 0.812,2.453c0,-0 -3.066,3.882 -3.066,4.908c0,1.019 2.657,4.496 2.657,4.496c0,-0 -0.815,5.109 -0.202,5.721c0.611,0.619 2.046,0.208 2.867,0.823c0.813,0.612 2.65,1.834 2.65,1.834c-0,0 0.613,5.93 1.228,7.156c0.61,1.226 2.25,3.683 2.865,5.524c0.61,1.837 3.88,2.248 5.721,3.269c1.839,1.024 12.878,5.315 14.921,5.515c2.043,0.209 7.769,-0 9.813,-4.905c2.047,-4.905 1.221,-12.672 1.221,-12.672c0,0 2.453,0.209 3.069,0c0.614,-0.209 1.23,-0.818 2.255,0.209c1.021,1.018 3.473,2.245 6.135,2.036c2.653,-0.202 5.106,-0.202 5.926,-0.813c0.813,-0.612 1.423,-1.432 1.423,-1.432c0,0 0.208,7.157 0.621,11.652c0.405,4.498 1.225,14.313 1.225,14.313c0,0 -0.615,5.925 -0.82,6.746c-0.201,0.816 0.205,3.059 0.614,4.905c0.411,1.831 1.427,8.172 1.026,9.605c-0.196,0.671 -0.146,1.234 -0.615,2.665c-0.531,1.6 -1.552,4.1 -1.226,5.511c-0,0 -0,2.048 0.615,3.269c0.611,1.23 2.653,7.565 3.268,8.591c0.616,1.026 3.883,3.88 2.858,5.52c-1.021,1.633 -3.264,6.538 -3.264,9.199c0,2.658 0.611,7.563 0.406,10.016c-0.206,2.452 -0.815,6.54 -0.815,9.812c-0,3.269 -0.209,8.589 -0.209,8.589l0.818,-0c0,-0 -1.226,5.716 -1.435,7.766c-0.205,2.044 0.209,5.722 -2.446,8.789c-2.663,3.068 -4.915,6.743 -4.915,6.743c0,-0 -7.558,4.087 -9.396,5.118c-1.836,1.02 -3.683,1.02 -4.292,1.832c-0.615,0.825 -1.638,0 -2.244,0.616c-0.623,0.615 -0.623,0.819 -1.435,0.819c-0.821,0 -2.461,1.432 -3.274,1.432c-0.818,0 -2.451,-0.818 -3.064,-0.406c-0.517,0.343 -2.054,1.847 -1.174,3.047l0,1.011l-56.611,-0Zm117.383,-303.368c0.064,0.019 0.098,0.031 0.098,0.031c0,-0 -0.035,-0.01 -0.098,-0.031Z" style="fill:#9d1c20;"/><path d="M228.392,316.664l-65.645,-0c0.4,-0.648 0.622,-1.446 0.622,-2.426c-0,-3.893 -2.867,-2.453 -1.843,-8.383c1.023,-5.929 2.659,-10.633 3.881,-14.722c1.223,-4.079 2.871,-10.827 4.093,-10.827c1.23,0 13.292,0.201 13.488,-1.231c0.208,-1.439 -0.812,-4.703 -0,-8.993c0.824,-4.293 1.432,-9.403 1.432,-11.856c-0,-2.456 3.268,-23.518 3.067,-30.257c-0.205,-6.742 1.431,-31.89 2.25,-38.637c0.822,-6.742 2.663,-17.374 2.45,-22.891c-0.205,-5.525 0.213,-9.001 0.409,-11.249c0.206,-2.247 0.406,-7.964 -0.196,-11.033c-0.619,-3.066 -0.418,-6.951 -0.418,-9.001c-0,-2.045 -1.423,-13.694 -1.632,-15.122c-0.206,-1.432 -0.412,-6.543 0.611,-11.658c1.021,-5.107 0.208,-7.561 1.226,-9.605c1.026,-2.044 0.409,-2.044 0.409,-2.044c0,0 5.521,-4.904 9.61,-10.63c4.088,-5.724 6.541,-8.792 9.201,-11.857c2.654,-3.07 8.585,-7.362 8.585,-11.858c-0,-4.493 -1.431,-8.174 -1.431,-9.607c-0,-1.428 -2.86,-8.993 -3.478,-10.831c-0.607,-1.842 -3.474,-4.701 -3.474,-4.701c-0,-0 2.05,-6.749 3.682,-10.838c1.636,-4.09 1.423,-3.678 2.248,-6.749c0.82,-3.062 2.046,-6.54 3.677,-7.764c1.639,-1.228 4.295,-5.315 3.885,-8.381c-0.206,-1.558 -1.73,-3.063 -3.796,-4.166l0,-1.011l7.087,0l0,-0.004l86.608,-0l0,318.336l-86.608,0l0,-0.004Z" style="fill:#1e3a6e;"/></g></svg>