<svg viewBox="0 0 709 318" xmlns="http://www.w3.org/2000/svg" width="304">
  <title>{{ site.title }}</title>
  <defs>
    <path id="clip-s" d="M528.633,79.654l-62.129,0l0,-17.507c0,-8.17 -0.794,-13.373 -2.383,-15.61c-1.589,-2.237 -4.238,-3.356 -7.945,-3.356c-4.026,0 -7.071,1.508 -9.137,4.523c-2.065,3.015 -3.098,7.586 -3.098,13.714c-0,7.878 1.165,13.811 3.495,17.798c2.225,3.988 8.528,8.803 18.909,14.444c29.767,16.242 48.517,29.567 56.25,39.974c7.733,10.407 11.599,27.184 11.599,50.332c0,16.826 -2.145,29.227 -6.435,37.203c-4.29,7.975 -12.579,14.662 -24.867,20.06c-12.288,5.398 -26.589,8.097 -42.903,8.097c-17.902,-0 -33.183,-3.113 -45.842,-9.337c-12.658,-6.225 -20.948,-14.152 -24.867,-23.781c-3.919,-9.629 -5.879,-23.294 -5.879,-40.995l-0,-15.465l62.129,0l-0,28.741c-0,8.851 0.874,14.54 2.622,17.069c1.747,2.529 4.846,3.793 9.295,3.793c4.449,0 7.759,-1.604 9.931,-4.814c2.172,-3.21 3.257,-7.975 3.257,-14.297c0,-13.909 -2.065,-23.003 -6.197,-27.282c-4.237,-4.28 -14.671,-11.428 -31.302,-21.446c-16.632,-10.115 -27.648,-17.458 -33.051,-22.03c-5.402,-4.571 -9.878,-10.893 -13.427,-18.965c-3.549,-8.073 -5.323,-18.383 -5.323,-30.929c0,-18.091 2.516,-31.318 7.548,-39.683c5.032,-8.364 13.162,-14.905 24.391,-19.622c11.228,-4.717 24.788,-7.076 40.677,-7.076c17.373,0 32.177,2.577 44.412,7.732c12.235,5.155 20.339,11.647 24.311,19.477c3.973,7.829 5.959,21.13 5.959,39.901l0,9.337Z"/>
    <path id="clip-u" d="M360.991,8.167l-0,157.855c-0,17.896 -0.636,30.467 -1.907,37.713c-1.271,7.246 -5.032,14.686 -11.282,22.321c-6.25,7.635 -14.486,13.422 -24.708,17.361c-10.223,3.939 -22.273,5.909 -36.15,5.909c-15.36,-0 -28.919,-2.335 -40.677,-7.003c-11.759,-4.669 -20.551,-10.748 -26.377,-18.237c-5.827,-7.489 -9.269,-15.391 -10.329,-23.707c-1.059,-8.316 -1.589,-25.798 -1.589,-52.448l0,-139.764l66.896,0l0,177.112c0,10.31 0.609,16.899 1.827,19.769c1.219,2.869 3.682,4.303 7.389,4.303c4.237,0 6.965,-1.58 8.183,-4.741c1.219,-3.161 1.828,-10.626 1.828,-22.394l-0,-174.049l66.896,0Z"/>
    <path id="clip-a" d="M670.693,8.167l38.294,236.198l-68.484,0l-3.337,-42.454l-23.994,-0l-3.972,42.454l-69.28,0l34.005,-236.198l96.768,0Zm-35.434,151.873c-3.39,-26.747 -6.78,-59.767 -10.17,-99.06c-6.779,45.129 -11.016,78.149 -12.711,99.06l22.881,0Z"/>
    <clipPath id="clip-stroke-u">
      <use xlink:href="#clip-u"/>
    </clipPath>
    <clipPath id="clip-stroke-s">
      <use xlink:href="#clip-s"/>
    </clipPath>
    <clipPath id="clip-stroke-a">
      <use xlink:href="#clip-a"/>
    </clipPath>
    <linearGradient id="gradient-red-blue">
      <stop offset="0%" stop-color="#cd2e3a"/>
      <stop offset="100%" stop-color="#0047a0"/>
    </linearGradient>
  </defs>
  <g id="text">
    <path id="u" clip-path="url(#clip-stroke-u)" d="M360.991,8.167l-0,157.855c-0,17.896 -0.636,30.467 -1.907,37.713c-1.271,7.246 -5.032,14.686 -11.282,22.321c-6.25,7.635 -14.486,13.422 -24.708,17.361c-10.223,3.939 -22.273,5.909 -36.15,5.909c-15.36,-0 -28.919,-2.335 -40.677,-7.003c-11.759,-4.669 -20.551,-10.748 -26.377,-18.237c-5.827,-7.489 -9.269,-15.391 -10.329,-23.707c-1.059,-8.316 -1.589,-25.798 -1.589,-52.448l0,-139.764l66.896,0l0,177.112c0,10.31 0.609,16.899 1.827,19.769c1.219,2.869 3.682,4.303 7.389,4.303c4.237,0 6.965,-1.58 8.183,-4.741c1.219,-3.161 1.828,-10.626 1.828,-22.394l-0,-174.049l66.896,0Z"/>
    <path id="s" clip-path="url(#clip-stroke-s)" d="M528.633,79.654l-62.129,0l0,-17.507c0,-8.17 -0.794,-13.373 -2.383,-15.61c-1.589,-2.237 -4.238,-3.356 -7.945,-3.356c-4.026,0 -7.071,1.508 -9.137,4.523c-2.065,3.015 -3.098,7.586 -3.098,13.714c-0,7.878 1.165,13.811 3.495,17.798c2.225,3.988 8.528,8.803 18.909,14.444c29.767,16.242 48.517,29.567 56.25,39.974c7.733,10.407 11.599,27.184 11.599,50.332c0,16.826 -2.145,29.227 -6.435,37.203c-4.29,7.975 -12.579,14.662 -24.867,20.06c-12.288,5.398 -26.589,8.097 -42.903,8.097c-17.902,-0 -33.183,-3.113 -45.842,-9.337c-12.658,-6.225 -20.948,-14.152 -24.867,-23.781c-3.919,-9.629 -5.879,-23.294 -5.879,-40.995l-0,-15.465l62.129,0l-0,28.741c-0,8.851 0.874,14.54 2.622,17.069c1.747,2.529 4.846,3.793 9.295,3.793c4.449,0 7.759,-1.604 9.931,-4.814c2.172,-3.21 3.257,-7.975 3.257,-14.297c0,-13.909 -2.065,-23.003 -6.197,-27.282c-4.237,-4.28 -14.671,-11.428 -31.302,-21.446c-16.632,-10.115 -27.648,-17.458 -33.051,-22.03c-5.402,-4.571 -9.878,-10.893 -13.427,-18.965c-3.549,-8.073 -5.323,-18.383 -5.323,-30.929c0,-18.091 2.516,-31.318 7.548,-39.683c5.032,-8.364 13.162,-14.905 24.391,-19.622c11.228,-4.717 24.788,-7.076 40.677,-7.076c17.373,0 32.177,2.577 44.412,7.732c12.235,5.155 20.339,11.647 24.311,19.477c3.973,7.829 5.959,21.13 5.959,39.901l0,9.337Z"/>
    <path id="a" clip-path="url(#clip-stroke-a)" d="M670.693,8.167l38.294,236.198l-68.484,0l-3.337,-42.454l-23.994,-0l-3.972,42.454l-69.28,0l34.005,-236.198l96.768,0Zm-35.434,151.873c-3.39,-26.747 -6.78,-59.767 -10.17,-99.06c-6.779,45.129 -11.016,78.149 -12.711,99.06l22.881,0Z"/>
    <path d="M222.403,271.563l0,42.073l11.138,0l-0,-42.073l15.181,-0l-0,-9.543l-41.5,0l0,9.543l15.181,-0Z"/>
    <path d="M260.782,293.684l6.597,-18.94l0.142,-0l6.384,18.94l-13.123,-0Zm1.064,-31.664l-19.154,51.616l11.208,0l3.973,-11.494l18.941,-0l3.831,11.494l11.563,0l-18.941,-51.616l-11.421,0Z"/>
    <path d="M296.606,262.02l-0,51.616l38.449,0l0,-9.542l-27.312,-0l0,-12.651l24.546,-0l-0,-8.82l-24.546,0l0,-11.06l26.745,-0l-0,-9.543l-37.882,0Z"/>
    <path d="M362.296,262.02l-0,51.616l11.138,0l-0,-16.627l6.384,-6.578l15.252,23.205l13.975,0l-21.707,-31.23l19.792,-20.386l-13.904,0l-19.792,21.398l-0,-21.398l-11.138,0Z"/>
    <path d="M461.753,313.636l13.621,-51.616l-10.925,0l-8.3,35.568l-0.142,-0l-8.655,-35.568l-10.428,0l-8.796,35.134l-0.142,-0l-8.016,-35.134l-11.138,0l13.408,51.616l11.279,0l8.442,-35.133l0.142,-0l8.584,35.133l11.066,0Z"/>
    <path d="M489.42,288.045c-0,-2.265 0.248,-4.458 0.744,-6.578c0.497,-2.121 1.289,-4.013 2.377,-5.675c1.088,-1.663 2.506,-2.988 4.256,-3.976c1.75,-0.988 3.878,-1.482 6.385,-1.482c2.506,-0 4.635,0.494 6.384,1.482c1.75,0.988 3.169,2.313 4.257,3.976c1.088,1.662 1.88,3.554 2.376,5.675c0.497,2.12 0.745,4.313 0.745,6.578c0,2.169 -0.248,4.277 -0.745,6.326c-0.496,2.048 -1.288,3.891 -2.376,5.53c-1.088,1.639 -2.507,2.952 -4.257,3.94c-1.749,0.988 -3.878,1.482 -6.384,1.482c-2.507,-0 -4.635,-0.494 -6.385,-1.482c-1.75,-0.988 -3.168,-2.301 -4.256,-3.94c-1.088,-1.639 -1.88,-3.482 -2.377,-5.53c-0.496,-2.049 -0.744,-4.157 -0.744,-6.326Zm-11.138,0c0,3.759 0.568,7.265 1.703,10.519c1.135,3.253 2.766,6.084 4.894,8.494c2.129,2.409 4.742,4.301 7.839,5.675c3.098,1.373 6.586,2.06 10.464,2.06c3.925,-0 7.425,-0.687 10.499,-2.06c3.074,-1.374 5.675,-3.266 7.803,-5.675c2.128,-2.41 3.76,-5.241 4.895,-8.494c1.135,-3.254 1.703,-6.76 1.703,-10.519c-0,-3.855 -0.568,-7.434 -1.703,-10.735c-1.135,-3.301 -2.767,-6.181 -4.895,-8.639c-2.128,-2.458 -4.729,-4.386 -7.803,-5.783c-3.074,-1.398 -6.574,-2.097 -10.499,-2.097c-3.878,0 -7.366,0.699 -10.464,2.097c-3.097,1.397 -5.71,3.325 -7.839,5.783c-2.128,2.458 -3.759,5.338 -4.894,8.639c-1.135,3.301 -1.703,6.88 -1.703,10.735Z"/>
    <path d="M535.672,262.02l0,51.616l10.428,0l0,-34.555l0.142,0l21.069,34.555l11.138,0l-0,-51.616l-10.428,0l-0,34.628l-0.142,-0l-21.14,-34.628l-11.067,0Z"/>
    <path d="M619.097,304.094l0,-32.531l7.945,-0c2.743,-0 5.049,0.397 6.917,1.193c1.868,0.795 3.37,1.939 4.505,3.433c1.135,1.494 1.95,3.29 2.447,5.386c0.497,2.097 0.745,4.446 0.745,7.048c-0,2.844 -0.355,5.254 -1.064,7.23c-0.71,1.976 -1.655,3.578 -2.838,4.807c-1.182,1.229 -2.53,2.108 -4.043,2.639c-1.514,0.53 -3.074,0.795 -4.682,0.795l-9.932,-0Zm-11.137,-42.074l-0,51.616l21.849,0c3.878,0 7.248,-0.662 10.109,-1.988c2.861,-1.325 5.249,-3.144 7.165,-5.458c1.915,-2.313 3.346,-5.06 4.292,-8.241c0.945,-3.181 1.418,-6.651 1.418,-10.41c0,-4.289 -0.579,-8.024 -1.738,-11.205c-1.158,-3.181 -2.766,-5.832 -4.824,-7.952c-2.057,-2.121 -4.492,-3.711 -7.306,-4.771c-2.814,-1.061 -5.853,-1.591 -9.116,-1.591l-21.849,0Z"/>
    <path d="M669.464,288.045c0,-2.265 0.248,-4.458 0.745,-6.578c0.497,-2.121 1.289,-4.013 2.376,-5.675c1.088,-1.663 2.507,-2.988 4.257,-3.976c1.75,-0.988 3.878,-1.482 6.384,-1.482c2.507,-0 4.635,0.494 6.385,1.482c1.75,0.988 3.169,2.313 4.256,3.976c1.088,1.662 1.88,3.554 2.377,5.675c0.496,2.12 0.745,4.313 0.745,6.578c-0,2.169 -0.249,4.277 -0.745,6.326c-0.497,2.048 -1.289,3.891 -2.377,5.53c-1.087,1.639 -2.506,2.952 -4.256,3.94c-1.75,0.988 -3.878,1.482 -6.385,1.482c-2.506,-0 -4.634,-0.494 -6.384,-1.482c-1.75,-0.988 -3.169,-2.301 -4.257,-3.94c-1.087,-1.639 -1.879,-3.482 -2.376,-5.53c-0.497,-2.049 -0.745,-4.157 -0.745,-6.326Zm-11.137,0c-0,3.759 0.567,7.265 1.702,10.519c1.135,3.253 2.767,6.084 4.895,8.494c2.128,2.409 4.741,4.301 7.839,5.675c3.098,1.373 6.585,2.06 10.463,2.06c3.926,-0 7.425,-0.687 10.499,-2.06c3.075,-1.374 5.676,-3.266 7.804,-5.675c2.128,-2.41 3.76,-5.241 4.895,-8.494c1.135,-3.254 1.702,-6.76 1.702,-10.519c0,-3.855 -0.567,-7.434 -1.702,-10.735c-1.135,-3.301 -2.767,-6.181 -4.895,-8.639c-2.128,-2.458 -4.729,-4.386 -7.804,-5.783c-3.074,-1.398 -6.573,-2.097 -10.499,-2.097c-3.878,0 -7.365,0.699 -10.463,2.097c-3.098,1.397 -5.711,3.325 -7.839,5.783c-2.128,2.458 -3.76,5.338 -4.895,8.639c-1.135,3.301 -1.702,6.88 -1.702,10.735Z"/>
  </g>
  <g>
    <path fill="#cd2e3a" d="M130.62,1.743c-4.811,0.517 -6.713,1.57 -8.076,2.473l-0.001,0c-1.152,0.768 -1.757,1.362 -2.074,1.758c-0.503,0.114 -1.381,0.343 -2.267,0.714c-0.999,0.418 -1.99,1.024 -2.575,1.799l-0.001,0.002c-0.588,0.786 -0.773,1.387 -0.79,1.829c-0.254,0.115 -0.52,0.259 -0.769,0.44c-0.704,0.512 -1.268,1.28 -1.268,2.376c0,0.438 0.087,0.829 0.233,1.177c-1.045,0.194 -1.965,0.752 -2.389,1.913c-0.464,1.272 -0.234,2.309 0.321,3.082c0.033,0.045 0.066,0.089 0.102,0.132c-0.2,0.076 -0.397,0.178 -0.59,0.305c-0.952,0.63 -1.713,1.874 -1.713,2.884c0,0.781 0.316,1.888 0.966,2.732c0.41,0.532 0.939,0.964 1.585,1.185c-0.686,0.338 -1.331,0.727 -1.854,1.122c-0.775,0.586 -1.284,1.219 -1.448,1.71c-0.337,1.008 -0.037,3.416 0.703,4.927c0.412,0.841 0.985,1.404 1.541,1.59c1.368,0.458 5.682,0.468 8.179,-1.348l0,-0.001c1.099,-0.801 1.85,-1.453 2.502,-1.903c0.468,-0.323 0.854,-0.531 1.355,-0.531c0.58,0 1.293,-0.065 1.944,-0.144c-0.534,1.125 -1.26,2.62 -1.915,3.842c-0.468,0.875 -0.877,1.605 -1.143,1.873c-1.055,1.058 -4.23,5.506 -5.081,7.839l-0,0.001c-0.557,1.534 -2.486,6.397 -4.073,9.521c-0.389,0.767 -0.755,1.425 -1.073,1.89c-0.139,0.204 -0.249,0.365 -0.354,0.441c-0.473,0.336 -0.932,0.819 -1.339,1.326c-0.067,-0.424 -0.147,-0.851 -0.244,-1.242c-0.239,-0.97 -0.635,-1.74 -1.051,-2.074l-0.001,-0c-0.631,-0.505 -1.317,-0.713 -1.949,-0.87c-0.309,-0.077 -0.61,-0.079 -0.794,-0.265l-0.001,-0.001c-0.39,-0.39 -0.784,-0.855 -1.174,-1.168c-0.402,-0.322 -0.821,-0.507 -1.227,-0.538c-0.081,-0.051 -0.323,-0.208 -0.493,-0.329c-0.705,-0.504 -1.661,-1.139 -2.951,-1.284l-0,0c-1.037,-0.115 -1.762,0.313 -2.147,0.636c-0.605,-0.47 -1.248,-0.89 -1.992,-0.92c-0.825,-0.033 -1.907,0.362 -3.228,2.08c-2.295,2.976 -2.437,3.706 -2.437,4.852c-0,0.357 0.078,0.778 0.154,1.192c0.023,0.125 0.042,0.3 0.056,0.44c-1.027,0.05 -2.332,0.495 -3.237,1.293c-0.732,0.646 -1.212,1.504 -1.212,2.534c-0,1.055 0.555,1.861 1.419,2.502c0.896,0.666 2.186,1.13 3.034,1.74l0,0.001c1.029,0.737 2.473,1.675 3.46,2.173c0.6,0.302 1.098,0.439 1.364,0.439c0.288,0 0.762,0.048 1.163,0.095c0.043,0.321 0.082,0.718 0.082,1.11c-0,0.252 -0.015,0.501 -0.064,0.718c-0.018,0.079 -0.019,0.158 -0.064,0.203l-0.002,0.002c-0.48,0.483 -2.33,1.901 -3.95,3.392c-1.192,1.099 -2.253,2.249 -2.696,3.134l-0.001,0c-0.479,0.961 -0.639,1.718 -0.745,2.273l-0.041,0.207c-1.356,0.006 -4.982,0.079 -7.152,0.864l-0.001,0c-2.223,0.811 -9.903,1.419 -13.14,2.628l-0.001,0c-3.255,1.225 -12.607,3.274 -16.072,5.104l-0.001,-0c-3.598,1.907 -7.587,4.913 -8.438,6.183c-0.848,1.259 -2.107,3.988 -2.526,5.04c-0.221,0.553 -0.723,1.096 -1.077,1.649c-0.371,0.579 -0.611,1.171 -0.611,1.749l-0,0.709c-0.527,-0.048 -1.144,-0.092 -1.627,-0.092c-0.285,-0 -0.542,0.014 -0.77,0.036c-0.1,-0.454 -0.264,-1.019 -0.535,-1.652c-0.228,-0.535 -0.429,-0.987 -0.592,-1.343c0.201,-0.146 0.404,-0.334 0.589,-0.576c0.423,-0.551 0.791,-1.417 0.687,-2.809l-0,-0.001c-0.12,-1.561 -0.544,-2.34 -1.054,-3.09c-0.387,-0.569 -0.852,-1.111 -1.215,-2.205l-0,-0.001c-0.644,-1.932 -1.528,-2.697 -2.251,-2.91c-0.645,-0.19 -1.29,-0.047 -1.87,0.367c-0.64,-0.961 -1.756,-2.518 -3.159,-3.998c-1.564,-1.648 -3.487,-3.183 -5.498,-3.796l0,0c-4.993,-1.521 -15.562,-2.863 -18.819,7.112l0,0c-2.584,7.927 1.624,14.604 3.359,16.901c-0.627,0.61 -1.221,1.597 -0.717,2.948l0.001,0c0.353,0.945 1.255,1.804 2.195,2.628c0.674,0.591 1.388,1.147 1.641,1.823l0,0.001c0.336,0.89 0.746,1.402 1.188,1.722c0.642,0.465 1.404,0.538 2.38,0.538c0,0 1.118,0 1.118,0c0.278,0.053 1.294,0.268 2.338,0.74c0.741,0.335 1.512,0.794 1.976,1.46l0.001,0.002c1.421,2.017 4.441,5.44 5.248,6.646c0.306,0.463 0.854,0.923 1.492,1.314c0.464,0.284 0.975,0.536 1.434,0.741c-1.204,1.298 -3.219,3.546 -4.618,5.497c-1.05,1.464 -1.714,2.825 -1.714,3.609c-0,0.791 0.373,1.852 0.947,2.934c0.879,1.659 2.199,3.404 2.803,4.172c-0.098,0.409 -0.216,0.993 -0.241,1.509c-0.028,0.591 0.09,1.111 0.299,1.429c0.224,0.344 0.439,1.133 0.561,1.639c-0.49,0.639 -1.484,1.97 -2.153,3.078c-0.506,0.839 -0.798,1.608 -0.798,2.011c-0,0.404 0.256,1.122 0.698,1.898c0.584,1.026 1.451,2.233 1.877,2.81c-0.137,0.959 -0.445,3.32 -0.359,4.634c0.047,0.731 0.282,1.241 0.503,1.462c0.382,0.387 0.953,0.582 1.612,0.66c0.291,0.035 0.603,0.051 0.9,0.102c0.154,0.027 0.308,0.054 0.427,0.144c0.584,0.438 1.693,1.191 2.279,1.586c0.172,1.461 0.73,5.889 1.261,6.947c0.59,1.185 2.183,3.55 2.777,5.327c0.318,0.96 1.142,1.676 2.233,2.211c1.221,0.599 2.804,0.979 3.883,1.577c1.863,1.037 13.061,5.367 15.132,5.57c2.237,0.229 8.476,-0.078 10.716,-5.457c1.61,-3.857 1.505,-9.435 1.367,-11.839c0.337,0.015 0.705,0.026 1.039,0.022c0.529,-0.006 0.989,-0.061 1.233,-0.144l0.001,-0c0.152,-0.052 0.304,-0.121 0.46,-0.192c0.108,-0.05 0.212,-0.129 0.342,-0.121c0.123,0.007 0.233,0.114 0.398,0.279l0.001,0.001c1.141,1.138 3.872,2.534 6.845,2.301c1.878,-0.142 3.657,-0.19 4.84,-0.415c0.61,-0.116 1.093,-0.292 1.427,-0.507c0.094,2.463 0.274,6.436 0.538,9.313c0.377,4.188 1.119,13.044 1.203,14.045c-0.077,0.745 -0.593,5.7 -0.777,6.434l-0,0.002c-0.218,0.882 0.159,3.311 0.601,5.304l0,0.001c0.279,1.243 0.844,4.624 1.026,7.017c0.067,0.885 0.102,1.615 0.004,1.979c-0.191,0.658 -0.141,1.209 -0.598,2.599c-0.322,0.973 -0.821,2.275 -1.099,3.469c-0.209,0.896 -0.285,1.743 -0.159,2.407c0.014,0.479 0.11,2.365 0.709,3.559c0.609,1.227 2.654,7.536 3.268,8.559c0.366,0.609 1.676,1.871 2.447,3.133c0.159,0.261 0.293,0.52 0.371,0.771c0.057,0.185 0.108,0.36 0.016,0.507c-1.067,1.706 -3.378,6.841 -3.378,9.621c0,2.604 0.606,7.41 0.405,9.814c-0.205,2.445 -0.809,6.519 -0.809,9.78c-0,3.216 -0.206,8.449 -0.206,8.449l-0.041,1.038l0.619,-0c-0.371,1.796 -1.034,5.114 -1.183,6.575l-0,0c-0.19,1.887 0.271,5.303 -2.179,8.133c-2.285,2.632 -4.27,5.709 -4.809,6.564c-1.276,0.69 -7.432,4.023 -9.064,4.938c-1.024,0.569 -2.055,0.786 -2.835,1.04c-0.78,0.254 -1.365,0.58 -1.71,1.031c-0.021,0.002 -0.051,0.005 -0.071,0.005c-0.055,0 -0.111,-0.003 -0.167,-0.006c-0.203,-0.013 -0.406,-0.029 -0.6,-0.022c-0.483,0.018 -0.922,0.16 -1.297,0.537c-0.132,0.131 -0.237,0.244 -0.329,0.341c-0.053,0.057 -0.126,0.129 -0.161,0.164c-0.046,0.005 -0.143,0.013 -0.222,0.013c-0.446,-0 -1.091,0.254 -1.75,0.628c-0.349,0.197 -0.711,0.42 -1.045,0.593c-0.174,0.091 -0.318,0.194 -0.44,0.194c-0.534,0 -1.436,-0.393 -2.127,-0.486c-0.598,-0.08 -1.105,0.02 -1.453,0.251c-0.396,0.263 -1.259,1.059 -1.645,1.985c-0.116,0.28 -0.194,0.569 -0.22,0.86l-43.623,-0c-6.067,-0 -10.985,-4.919 -10.985,-10.985l-0,-289.616c-0,-6.066 4.918,-10.985 10.985,-10.985l119.622,0Z"/>
    <path fill="#0047a0" d="M108.006,280.397c1.697,0.01 8.886,0.073 11.929,-0.57c0.764,-0.161 1.318,-0.397 1.609,-0.632c0.326,-0.263 0.476,-0.573 0.518,-0.876c0.089,-0.624 -0.014,-1.564 -0.138,-2.762c-0.161,-1.569 -0.329,-3.649 0.13,-6.078c0.828,-4.311 1.433,-9.44 1.433,-11.902c-0,-2.43 3.229,-23.266 3.03,-29.931l0,-0.001c-0.202,-6.637 1.411,-31.39 2.218,-38.031c0.817,-6.71 2.639,-17.292 2.427,-22.781c-0.2,-5.396 0.21,-8.793 0.401,-10.99c0.209,-2.28 0.402,-8.073 -0.208,-11.184l-0.001,-0.003c-0.599,-2.965 -0.394,-6.719 -0.394,-8.7c-0,-2.041 -1.415,-13.664 -1.623,-15.089c-0.198,-1.371 -0.386,-6.274 0.595,-11.18l-0,0c0.618,-3.093 0.574,-5.222 0.659,-6.876c0.047,-0.924 0.123,-1.675 0.467,-2.366c0.491,-0.98 0.645,-1.577 0.68,-1.93c0.009,-0.094 0.013,-0.181 0.011,-0.261c1.469,-1.363 5.778,-5.506 9.129,-10.199c4.014,-5.62 6.422,-8.633 9.034,-11.643l0.001,-0.001c1.582,-1.831 4.333,-4.1 6.283,-6.585c1.443,-1.839 2.444,-3.805 2.444,-5.787c0,-2.751 -0.521,-5.204 -0.941,-7.042c-0.25,-1.089 -0.473,-1.933 -0.473,-2.452c0,-0.471 -0.258,-1.555 -0.672,-2.888c-0.871,-2.803 -2.387,-6.857 -2.816,-8.133c-0.5,-1.51 -2.4,-3.671 -3.255,-4.593c0.518,-1.673 2.119,-6.764 3.441,-10.076c1.644,-4.109 1.43,-3.695 2.258,-6.781l0,-0c0.469,-1.751 1.073,-3.645 1.82,-5.131c0.436,-0.868 0.905,-1.593 1.45,-2.002c1.064,-0.797 2.545,-2.695 3.448,-4.815c0.623,-1.462 0.964,-3.023 0.781,-4.397c-0.136,-1.025 -0.738,-2.055 -1.673,-2.987l0,-0l18.764,-0c6.067,-0 10.986,4.918 10.986,10.985c-0,0 -0,289.615 -0,289.615c-0,6.067 -4.919,10.986 -10.986,10.986l-78.237,-0c0.097,-0.428 0.149,-0.893 0.149,-1.399c-0,-1.853 -0.548,-2.69 -1.125,-3.479c-0.617,-0.844 -1.232,-1.619 -0.711,-4.635l0,0c1.003,-5.813 2.61,-10.424 3.808,-14.433c0.835,-2.785 1.868,-6.849 2.825,-9.036c0.16,-0.366 0.41,-0.769 0.525,-0.949Z"/>
    <path fill="#fff" d="M28.547,127.071c0,0 -7.071,7.275 -7.071,9.491c0,2.226 3.844,6.873 3.844,6.873c0,0 -0.606,2.018 -0.198,2.625c0.398,0.61 0.803,2.424 0.803,2.424c-0,-0 -3.03,3.837 -3.03,4.85c-0,1.007 2.625,4.443 2.625,4.443c0,0 -0.806,5.05 -0.2,5.654c0.605,0.612 2.023,0.206 2.834,0.814c0.803,0.604 2.618,1.812 2.618,1.812c0,0 0.606,5.861 1.214,7.072c0.603,1.211 2.224,3.639 2.832,5.459c0.602,1.815 3.834,2.222 5.653,3.23c1.818,1.012 12.726,5.252 14.746,5.45c2.019,0.207 7.677,0 9.697,-4.847c2.023,-4.847 1.207,-12.523 1.207,-12.523c0,0 2.424,0.207 3.032,0c0.607,-0.207 1.216,-0.809 2.229,0.207c1.009,1.006 3.433,2.218 6.063,2.011c2.622,-0.198 5.045,-0.198 5.856,-0.803c0.803,-0.605 1.406,-1.415 1.406,-1.415c0,0 0.206,7.073 0.614,11.515c0.4,4.445 1.211,14.145 1.211,14.145c-0,0 -0.608,5.855 -0.811,6.666c-0.199,0.806 0.203,3.023 0.607,4.848c0.406,1.809 1.41,8.075 1.014,9.491c-0.194,0.663 -0.144,1.22 -0.608,2.634c-0.525,1.582 -1.533,4.052 -1.212,5.446c0,0 0,2.024 0.609,3.231c0.603,1.216 2.621,7.476 3.229,8.49c0.608,1.014 3.837,3.834 2.824,5.455c-1.008,1.613 -3.225,6.461 -3.225,9.091c-0,2.626 0.604,7.474 0.401,9.897c-0.204,2.424 -0.806,6.464 -0.806,9.697c0,3.231 -0.206,8.488 -0.206,8.488l0.808,0c0,0 -1.211,5.649 -1.418,7.675c-0.202,2.019 0.207,5.654 -2.417,8.685c-2.632,3.032 -4.857,6.664 -4.857,6.664c0,-0 -7.469,4.039 -9.286,5.058c-1.814,1.008 -3.639,1.008 -4.241,1.81c-0.608,0.815 -1.619,0 -2.218,0.609c-0.615,0.608 -0.615,0.81 -1.418,0.81c-0.811,-0 -2.432,1.415 -3.235,1.415c-0.809,-0 -2.423,-0.809 -3.028,-0.402c-0.606,0.402 -2.627,2.416 -0.408,3.631c2.221,1.212 5.455,0.61 5.455,0.61c0,-0 5.658,1.616 8.684,0.805c3.032,-0.805 9.695,-2.63 11.92,-1.215c2.224,1.413 7.072,3.035 11.316,2.836c4.243,-0.207 7.68,-1.215 7.68,-5.054c-0,-3.847 -2.833,-2.424 -1.821,-8.284c1.011,-5.859 2.628,-10.508 3.835,-14.549c1.209,-4.031 2.837,-10.699 4.045,-10.699c1.215,-0 13.135,0.198 13.329,-1.217c0.206,-1.422 -0.802,-4.648 0,-8.887c0.815,-4.243 1.415,-9.293 1.415,-11.716c0,-2.428 3.23,-23.242 3.031,-29.902c-0.203,-6.663 1.414,-31.515 2.224,-38.182c0.812,-6.663 2.632,-17.17 2.421,-22.622c-0.203,-5.46 0.211,-8.895 0.404,-11.116c0.204,-2.221 0.402,-7.871 -0.193,-10.904c-0.612,-3.029 -0.414,-6.868 -0.414,-8.895c0,-2.021 -1.406,-13.533 -1.613,-14.944c-0.203,-1.415 -0.406,-6.466 0.605,-11.521c1.008,-5.047 0.205,-7.472 1.211,-9.492c1.014,-2.019 0.404,-2.019 0.404,-2.019c0,-0 5.456,-4.847 9.497,-10.505c4.04,-5.657 6.464,-8.689 9.093,-11.718c2.622,-3.034 8.483,-7.275 8.483,-11.718c0,-4.44 -1.414,-8.078 -1.414,-9.494c0,-1.412 -2.826,-8.888 -3.436,-10.704c-0.6,-1.82 -3.434,-4.646 -3.434,-4.646c0,-0 2.027,-6.669 3.64,-10.71c1.616,-4.042 1.406,-3.635 2.221,-6.67c0.811,-3.026 2.022,-6.462 3.634,-7.673c1.62,-1.213 4.244,-5.252 3.839,-8.282c-0.402,-3.033 -5.855,-5.86 -10.5,-5.86c-4.653,-0 -4.653,2.422 -14.55,2.422c-9.898,-0 -12.726,1.422 -14.546,2.626c-1.816,1.212 -2.022,1.82 -2.022,1.82c0,-0 -3.428,0.605 -4.649,2.221c-1.211,1.619 -0.192,1.821 -0.192,1.821c-0,0 -2.434,0.406 -2.434,2.224c-0,1.815 2.234,2.424 2.234,2.424c-0,0 -3.639,-1.215 -4.45,1.008c-0.811,2.223 1.215,3.436 3.028,3.234l1.814,-0.203c0,-0 -3.031,1.413 -4.031,0.805c-1.019,-0.602 -2.631,1.016 -2.631,2.225c0,1.215 1.009,3.434 3.035,3.027c2.019,-0.403 1.41,-1.007 2.627,-1.007c1.212,0 2.617,-0.805 2.617,-0.805c0,0 -1.006,2.623 -3.027,2.623c-2.019,-0 -5.653,2.02 -6.055,3.228c-0.409,1.22 0.402,4.849 1.613,5.253c1.216,0.407 5.053,0.407 7.275,-1.209c2.213,-1.615 3.032,-2.625 4.445,-2.625c1.408,-0 3.634,-0.406 3.634,-0.406c-0,0 -3.037,6.667 -4.038,7.678c-1.009,1.012 -4.041,5.253 -4.853,7.478c-0.803,2.216 -4.445,11.308 -5.855,12.322c-1.418,1.007 -2.63,3.429 -2.63,3.429c-0,0 -0.203,-4.643 -1.212,-5.451c-1.009,-0.808 -2.224,-0.602 -2.828,-1.21c-0.605,-0.606 -1.211,-1.418 -1.819,-1.418c-0.609,-0 -1.614,-1.41 -3.429,-1.613c-1.825,-0.204 -1.418,1.412 -2.429,0.606c-1.008,-0.81 -2.017,-1.818 -4.035,0.806c-2.027,2.628 -2.23,3.232 -2.23,4.243c-0,1.009 0.815,2.626 -0.6,2.626c-1.414,-0 -3.64,1.011 -3.64,2.833c0,1.816 2.631,2.419 4.038,3.432c1.413,1.012 3.639,2.424 4.241,2.424c0.614,0 2.025,0.198 2.025,0.198c-0,0 0.608,2.826 -0.203,3.634c-0.803,0.809 -5.448,4.248 -6.461,6.268c-1.009,2.024 -0.405,3.031 -1.414,3.031c-1.018,-0 -4.852,-0 -7.077,0.805c-2.22,0.81 -9.896,1.416 -13.132,2.624c-3.23,1.216 -12.516,3.236 -15.956,5.052c-3.433,1.819 -7.27,4.649 -8.077,5.858c-0.816,1.211 -2.023,3.84 -2.427,4.851c-0.403,1.012 -1.617,2.021 -1.617,3.029l0,1.82c0,0 -1.616,-0.205 -2.625,-0.205c-1.01,0 -1.617,0.205 -1.617,0.205c0,0 0,-1.011 -0.606,-2.426c-0.602,-1.411 -1.007,-2.225 -1.007,-2.225c0,0 1.809,-0.198 1.613,-2.822c-0.202,-2.629 -1.415,-2.629 -2.221,-5.055c-0.807,-2.422 -1.819,-2.625 -2.628,-2.021l-0.807,0.61c-0,-0 -4.041,-6.871 -8.686,-8.286c-4.649,-1.417 -14.547,-2.821 -17.578,6.466c-3.03,9.296 3.837,16.769 3.837,16.769c0,-0 -1.812,0.806 -1.209,2.42c0.607,1.622 3.23,2.832 3.836,4.451c0.608,1.612 1.415,1.612 2.633,1.612l1.208,0c-0,0 3.634,0.606 5.043,2.628c1.423,2.021 4.451,5.455 5.26,6.664c0.806,1.216 3.833,2.225 3.833,2.225"/>
  </g>
</svg>
